<svg xmlns="http://www.w3.org/2000/svg" viewBox="20.000000000000014 143.58348418737603 535.0004302053317 287.83303162524794"><rect height="100%" width="100%" x="20.000000000000014" y="143.58348418737603" fill="rgba(255, 255, 255, 0)"/> <g transform="rotate(0 165.51191010908636 287.5)"><svg xmlns="http://www.w3.org/2000/svg" xmlns:xlink="http://www.w3.org/1999/xlink" version="1.1" id="Layer_1" x="90.00000000000001" y="213.58348418737603" viewBox="46.29998779296875 55.86000061035156 907.4000244140625 888.280029296875" xml:space="preserve" height="147.83303162524797" width="151.0238202181727" preserveAspectRatio="xMinYMin" enable-background="new 0 0 1000 1000" style="overflow: visible;"><path class="st0" d="M500,55.86c-267.63,0-453.7,186.06-453.7,444.78c0,258.71,186.06,443.5,453.7,443.5s453.7-184.79,453.7-443.5   C953.7,241.93,767.63,55.86,500,55.86z M461.93,784.24c-182.6,0-311.83-133.44-311.83-323.07c0-189.63,129.22-324.47,311.83-324.47   s311.83,134.85,311.83,324.47C773.76,650.8,644.54,784.24,461.93,784.24z" style="fill: #0f74c5;"></path><path class="st1" d="M330.23,287.13l-52.12,5.27c-16.02,1.62-28.21,15.11-28.21,31.21v120.66c0,12.38,10.7,22.05,23.02,20.8   l52.12-5.27c16.02-1.62,28.21-15.11,28.21-31.21V307.93C353.25,295.55,342.55,285.88,330.23,287.13z" style="fill: #0f74c5;"></path><path class="st1" d="M542.26,287.13l-52.12,5.27c-16.02,1.62-28.21,15.11-28.21,31.21v120.66c0,12.38,10.7,22.05,23.02,20.8   l52.12-5.27c16.02-1.62,28.21-15.11,28.21-31.21V307.93C565.28,295.55,554.58,285.88,542.26,287.13z" style="fill: #0f74c5;"></path></svg></g> <g transform="rotate(0 377.795428374277 287.5000444932734)"><svg y="265.32504525621283" viewBox="5.360000133514404 13.859999656677246 214.41000366210938 44.349998474121094" x="270.5904265432223" height="44.349998474121094" width="214.41000366210938" style="overflow: visible;"><g fill="#0f74c5" style=""><path d="M24.14 57.59L6.78 57.59Q6.10 57.59 5.73 57.19Q5.36 56.79 5.36 56.17L5.36 56.17L5.36 15.95Q5.36 15.28 5.73 14.88Q6.10 14.47 6.78 14.47L6.78 14.47L23.65 14.47Q28.27 14.47 31.20 15.98Q34.12 17.49 35.51 20.08Q36.89 22.67 36.89 25.87L36.89 25.87Q36.89 28.39 36.06 30.21Q35.23 32.03 34.00 33.17Q32.77 34.31 31.60 34.92L31.60 34.92Q34.00 36.09 35.88 38.74Q37.76 41.39 37.76 45.15L37.76 45.15Q37.76 48.54 36.22 51.37Q34.68 54.20 31.63 55.90Q28.58 57.59 24.14 57.59L24.14 57.59ZM11.39 37.63L11.39 52.60L23.34 52.60Q27.29 52.60 29.44 50.45Q31.60 48.29 31.60 45.15L31.60 45.15Q31.60 41.88 29.44 39.76Q27.29 37.63 23.34 37.63L23.34 37.63L11.39 37.63ZM11.39 19.46L11.39 32.71L22.73 32.71Q26.67 32.71 28.70 30.89Q30.74 29.07 30.74 25.93L30.74 25.93Q30.74 22.79 28.70 21.13Q26.67 19.46 22.73 19.46L22.73 19.46L11.39 19.46ZM62.03 58.21L62.03 58.21Q56.73 58.21 52.97 56.39Q49.21 54.57 47.18 50.78Q45.15 47.00 44.90 41.27L44.90 41.27Q44.84 38.56 44.84 36.06Q44.84 33.57 44.90 30.86L44.90 30.86Q45.15 25.19 47.27 21.40Q49.40 17.62 53.19 15.74Q56.97 13.86 62.03 13.86L62.03 13.86Q67.01 13.86 70.80 15.74Q74.59 17.62 76.75 21.40Q78.90 25.19 79.09 30.86L79.09 30.86Q79.21 33.57 79.21 36.06Q79.21 38.56 79.09 41.27L79.09 41.27Q78.90 47.00 76.84 50.78Q74.78 54.57 71.02 56.39Q67.26 58.21 62.03 58.21ZM62.03 52.97L62.03 52.97Q66.71 52.97 69.69 50.14Q72.68 47.30 72.93 40.96L72.93 40.96Q73.05 38.19 73.05 36.00Q73.05 33.82 72.93 31.11L72.93 31.11Q72.80 26.86 71.36 24.21Q69.91 21.56 67.51 20.33Q65.11 19.09 62.03 19.09L62.03 19.09Q58.95 19.09 56.54 20.33Q54.14 21.56 52.69 24.21Q51.25 26.86 51.06 31.11L51.06 31.11Q51.00 33.82 51.00 36.00Q51.00 38.19 51.06 40.96L51.06 40.96Q51.31 47.30 54.33 50.14Q57.34 52.97 62.03 52.97ZM102.25 57.59L99.04 57.59Q98.43 57.59 98.03 57.19Q97.63 56.79 97.63 56.17L97.63 56.17L97.63 19.96L85.80 19.96Q85.18 19.96 84.78 19.56Q84.38 19.16 84.38 18.54L84.38 18.54L84.38 15.95Q84.38 15.28 84.78 14.88Q85.18 14.47 85.80 14.47L85.80 14.47L115.49 14.47Q116.17 14.47 116.57 14.88Q116.97 15.28 116.97 15.95L116.97 15.95L116.97 18.54Q116.97 19.16 116.57 19.56Q116.17 19.96 115.49 19.96L115.49 19.96L103.72 19.96L103.72 56.17Q103.72 56.79 103.32 57.19Q102.92 57.59 102.25 57.59L102.25 57.59ZM137.91 57.59L134.71 57.59Q134.09 57.59 133.69 57.19Q133.29 56.79 133.29 56.17L133.29 56.17L133.29 19.96L121.46 19.96Q120.85 19.96 120.45 19.56Q120.05 19.16 120.05 18.54L120.05 18.54L120.05 15.95Q120.05 15.28 120.45 14.88Q120.85 14.47 121.46 14.47L121.46 14.47L151.15 14.47Q151.83 14.47 152.23 14.88Q152.63 15.28 152.63 15.95L152.63 15.95L152.63 18.54Q152.63 19.16 152.23 19.56Q151.83 19.96 151.15 19.96L151.15 19.96L139.39 19.96L139.39 56.17Q139.39 56.79 138.99 57.19Q138.59 57.59 137.91 57.59L137.91 57.59ZM164.21 57.59L160.95 57.59Q160.27 57.59 159.90 57.19Q159.53 56.79 159.53 56.17L159.53 56.17L159.53 15.89Q159.53 15.28 159.90 14.88Q160.27 14.47 160.95 14.47L160.95 14.47L164.21 14.47Q164.89 14.47 165.26 14.88Q165.63 15.28 165.63 15.89L165.63 15.89L165.63 56.17Q165.63 56.79 165.26 57.19Q164.89 57.59 164.21 57.59L164.21 57.59ZM203.69 57.59L177.76 57.59Q177.08 57.59 176.71 57.19Q176.34 56.79 176.34 56.17L176.34 56.17L176.34 15.95Q176.34 15.28 176.71 14.88Q177.08 14.47 177.76 14.47L177.76 14.47L203.20 14.47Q203.88 14.47 204.25 14.88Q204.62 15.28 204.62 15.95L204.62 15.95L204.62 18.29Q204.62 18.97 204.25 19.34Q203.88 19.71 203.20 19.71L203.20 19.71L182.26 19.71L182.26 33.20L201.84 33.20Q202.52 33.20 202.89 33.60Q203.26 34.00 203.26 34.68L203.26 34.68L203.26 36.96Q203.26 37.57 202.89 37.97Q202.52 38.37 201.84 38.37L201.84 38.37L182.26 38.37L182.26 52.36L203.69 52.36Q204.37 52.36 204.74 52.72Q205.11 53.09 205.11 53.77L205.11 53.77L205.11 56.17Q205.11 56.79 204.74 57.19Q204.37 57.59 203.69 57.59L203.69 57.59ZM218.29 57.59L213.86 57.59Q213.24 57.59 212.84 57.19Q212.44 56.79 212.44 56.17L212.44 56.17L212.44 51.74Q212.44 51.12 212.84 50.72Q213.24 50.32 213.86 50.32L213.86 50.32L218.29 50.32Q218.91 50.32 219.34 50.72Q219.77 51.12 219.77 51.74L219.77 51.74L219.77 56.17Q219.77 56.79 219.34 57.19Q218.91 57.59 218.29 57.59L218.29 57.59Z" transform="translate(0, 0)"></path></g></svg></g></svg>